<svg width="34" height="34" viewBox="0 0 34 34" fill="none" xmlns="http://www.w3.org/2000/svg">
<path fill-rule="evenodd" clip-rule="evenodd" d="M0.333008 16.9999C0.333008 7.79517 7.79492 0.333252 16.9997 0.333252C26.2043 0.333252 33.6663 7.79517 33.6663 16.9999C33.6663 26.2046 26.2043 33.6666 16.9997 33.6666C7.79492 33.6666 0.333008 26.2046 0.333008 16.9999ZM23.1782 12.4881C23.829 13.1389 23.829 14.1942 23.1782 14.8451L17.0402 20.9831C16.0973 21.9259 14.5687 21.9259 13.6258 20.9831L10.8212 18.1784C10.1703 17.5276 10.1703 16.4722 10.8212 15.8214C11.472 15.1706 12.5273 15.1706 13.1782 15.8214L15.333 17.9762L20.8212 12.4881C21.472 11.8372 22.5273 11.8372 23.1782 12.4881Z" fill="#F39237"/>
</svg>
